# xmcd CD database file
#
# Track frame offsets:
#	150
#	12345
#	20692
#	31337
#	39557
#	47827
#	60402
#	70320
#	82020
#	94615
#	109539
#	122611
#	135585
#	148949
#	161476
#	175953
#	190961
#	204678
#	220255
#	230990
#	246066
#	261172
#	274232
#	289195
#	303573
#	317919
#	331233
#
# Disc length: 4572 seconds
#
# Revision: 0
# Processed by: cddbd v1.5.1PL2 Copyright (c) Steve Scherf et al.
# Submitted via: Feurio! 1.68 - http://www.feurio.com
#
DISCID=9911da1b
DTITLE=Johnny Cash - The Best Of - CD 2
DYEAR=1900
DGENRE=
TTITLE0=Johnny Cash - CD 2 - I Walk The Line
TTITLE1=Johnny Cash - CD 2 - Country Boy
TTITLE2=Johnny Cash - CD 2 - I Heard The Lonesome Whistle
TTITLE3=Johnny Cash - CD 2 - Guess Things Happen That Way
TTITLE4=Johnny Cash - CD 2 - Wreck Of The Old 97
TTITLE5=Johnny Cash - CD 2 - Folsom Prison Blues
TTITLE6=Johnny Cash - CD 2 - Ballad Of A teenage Queen
TTITLE7=Johnny Cash - CD 2 - Doin' My Time
TTITLE8=Johnny Cash - CD 2 - Sixteen Tons
TTITLE9=Johnny Cash - CD 2 - Cat's In The Cradle
TTITLE10=Johnny Cash - CD 2 - Wanted Man
TTITLE11=Johnny Cash - CD 2 - That Old Wheel with Hank Williams Jr.
TTITLE12=Johnny Cash - CD 2 - Sweeter Than The Flowers with Waylon Jennings
TTITLE13=Johnny Cash - CD 2 - W Lee O'Daniel with The Light Crust Dough Boys
TTITLE14=Johnny Cash - CD 2 - I'll Go Somewhere And Sing My Songs Again with 
TTITLE14=Tom T. Hall
TTITLE15=Johnny Cash - CD 2 - Beans For Breakfast
TTITLE16=Johnny Cash - CD 2 - As Long As I Live with Emmylou Harris
TTITLE17=Johnny Cash - CD 2 - Call Me The Breeze with John Carter Cash
TTITLE18=Johnny Cash - CD 2 - Supper Time
TTITLE19=Johnny Cash - CD 2 - Letter From Home
TTITLE20=Johnny Cash - CD 2 - A Backstage Pass
TTITLE21=Johnny Cash - CD 2 - I Love You, Love You
TTITLE22=Johnny Cash - CD 2 - Goin' By The Book
TTITLE23=Johnny Cash - CD 2 - I'd Rather Have You
TTITLE24=Johnny Cash - CD 2 - Monteagle Mountain
TTITLE25=Johnny Cash - CD 2 - Don't Take Your Guns To Town
TTITLE26=Johnny Cash - CD 2 - You're the nearest thing in heaven
EXTD=
EXTT0=
EXTT1=
EXTT2=
EXTT3=
EXTT4=
EXTT5=
EXTT6=
EXTT7=
EXTT8=
EXTT9=
EXTT10=
EXTT11=
EXTT12=
EXTT13=
EXTT14=
EXTT15=
EXTT16=
EXTT17=
EXTT18=
EXTT19=
EXTT20=
EXTT21=
EXTT22=
EXTT23=
EXTT24=
EXTT25=
EXTT26=
PLAYORDER=
